<?xml version="1.0" encoding="UTF-8" standalone="no"?>
<!-- Created with Inkscape (http://www.inkscape.org/) -->

<svg
   version="1.1"
   id="svg308"
   width="94.947525"
   height="94.947525"
   viewBox="0 0 94.947525 94.947525"
   sodipodi:docname="info.svg"
   inkscape:version="1.2.2 (b0a8486541, 2022-12-01)"
   xmlns:inkscape="http://www.inkscape.org/namespaces/inkscape"
   xmlns:sodipodi="http://sodipodi.sourceforge.net/DTD/sodipodi-0.dtd"
   xmlns="http://www.w3.org/2000/svg"
   xmlns:svg="http://www.w3.org/2000/svg">
  <defs
     id="defs312" />
  <sodipodi:namedview
     id="namedview310"
     pagecolor="#000000"
     bordercolor="#000000"
     borderopacity="0.25"
     inkscape:showpageshadow="2"
     inkscape:pageopacity="0"
     inkscape:pagecheckerboard="0"
     inkscape:deskcolor="#d1d1d1"
     showgrid="false"
     inkscape:zoom="4.4194174"
     inkscape:cx="21.609183"
     inkscape:cy="44.349737"
     inkscape:window-width="1868"
     inkscape:window-height="1009"
     inkscape:window-x="24"
     inkscape:window-y="43"
     inkscape:window-maximized="1"
     inkscape:current-layer="g314" />
  <g
     inkscape:groupmode="layer"
     inkscape:label="Image"
     id="g314"
     transform="translate(-14.238432,-20.000317)">
    <g
       aria-label="?"
       id="text2138"
       style="font-weight:bold;font-size:83.2452px;font-family:Cantarell;-inkscape-font-specification:'Cantarell Bold';text-align:center;text-anchor:middle;stroke-width:5;stroke-linecap:round;stroke-linejoin:round;paint-order:stroke fill markers;fill:#ffffff;fill-opacity:1">
      <path
         d="m 56.717481,77.130519 h 10.572141 v -3.329808 c 0,-6.826106 12.070554,-9.906179 12.070554,-21.643752 0,-8.990482 -6.826107,-14.40142 -18.147454,-14.40142 -5.827164,0 -11.987309,1.581659 -17.148511,4.079015 l 2.497356,8.074785 c 3.995769,-1.831395 7.991539,-2.747092 11.904063,-2.747092 6.24339,0 9.739689,2.414111 9.739689,6.326635 0,7.159088 -11.487838,10.488896 -11.487838,20.311829 z m 5.244448,20.062094 c 4.245505,0 7.159087,-2.913582 7.159087,-7.075842 0,-4.245506 -2.913582,-7.242333 -7.159087,-7.242333 -4.16226,0 -7.075842,2.996827 -7.075842,7.242333 0,4.16226 2.913582,7.075842 7.075842,7.075842 z"
         id="path2758"
         style="fill:#ffffff;fill-opacity:1" />
    </g>
  </g>
</svg>
